<svg width="50" height="48" viewBox="0 0 50 48" fill="none" xmlns="http://www.w3.org/2000/svg">
<path d="M47.5 39.2499C42.5264 36.6124 38.7113 35.1335 35.3152 34.5665L35.6667 34.0833C35.8334 33.9166 35.9167 33.6666 35.8334 33.4166L35.0456 30.2655C37.0771 27.3501 38.2436 23.7116 38.1667 20.2499V15.2928C38.2232 15.2521 38.2789 15.2101 38.3334 15.1666C39.4167 14.2499 40.0001 12.9166 40.0001 11.5833C40.0001 5.33327 34.9168 0.249969 28.7501 0.249969H21.3334C15.0834 0.249969 10.0001 5.33327 9.9167 11.5C9.9167 12.9167 10.5 14.1667 11.5834 15.0833C11.6106 15.1043 11.6391 15.1238 11.6667 15.1442V20.2499C11.6667 23.7223 12.8821 27.3728 14.9477 30.2927L14.1667 33.4165C14.1667 33.5832 14.1667 33.8332 14.3334 34.0832L14.6849 34.5664C11.2888 35.1335 7.47363 36.6123 2.5001 39.2498C0.916699 39.9999 0 41.5832 0 43.3332V46.9165C0 47.4165 0.333301 47.7498 0.833301 47.7498H49.1666C49.6666 47.7498 49.9999 47.4165 49.9999 46.9165V43.3332C50 41.6666 49 40.0832 47.5 39.2499ZM33.75 31.9166L34.0833 33.4166L33.232 34.5854C33.1777 34.6299 33.1274 34.6837 33.0833 34.7499L28.5 41.0832L26.253 36.0068C28.6772 35.7152 30.8661 34.5919 32.6868 32.9536C33.0524 32.6312 33.4075 32.2854 33.75 31.9166ZM37.25 13.8332C37.2281 13.8523 37.2053 13.8701 37.1829 13.8885C37.0893 13.9103 36.9983 13.9454 36.9167 13.9999C36.5561 14.2703 36.1712 14.4423 35.7752 14.5177C35.4611 14.5659 35.1416 14.5616 34.8334 14.4999C28.8565 13.365 22.811 13.2606 17.0086 14.1864C16.3646 14.2795 15.7228 14.3836 15.0834 14.4999C14.9808 14.5113 14.8781 14.5175 14.7757 14.5196C14.1058 14.5076 13.4565 14.3215 12.9167 13.9166C12.4167 13.5833 12.0834 13.0833 11.9167 12.5833L15.5 11.9166C21.75 10.7499 28.1667 10.7499 34.5833 11.9166L38.1387 12.578C37.9542 13.0498 37.6469 13.4859 37.25 13.8332ZM21.25 1.91657H28.6667C33.7783 1.91657 37.9706 5.89723 38.3104 10.9237L34.8334 10.3333C28.2501 9.16657 21.5834 9.16657 15.1667 10.3333L11.6896 10.9237C12.0292 5.89723 16.2183 1.91657 21.25 1.91657ZM13.3333 15.9999C14 16.1666 14.75 16.2499 15.5 16.0832C18.6114 15.5024 21.7641 15.2109 24.9375 15.2084C28.1113 15.2109 31.3057 15.5023 34.5 16.0832C34.7276 16.1401 34.9161 16.1578 35.0926 16.1635C35.6172 16.2033 36.1654 16.1252 36.6666 15.9999V20.2499C36.6666 23.8836 35.4201 27.1126 33.5485 29.567L33.4999 29.5832C33.4166 29.6665 33.3332 29.7499 33.2499 29.8332C32.8307 30.3922 32.3882 30.9018 31.9259 31.3614C29.8567 33.2891 27.3668 34.4165 25 34.4165H24.9999C24.9133 34.4165 24.8269 34.4147 24.7404 34.412C23.3324 34.3635 21.8882 33.9225 20.5209 33.1584C19.164 32.3789 17.8875 31.2551 16.75 29.8331C16.6667 29.7498 16.5833 29.6664 16.5 29.5831L16.4514 29.5669C14.5799 27.1124 13.3333 23.8834 13.3333 20.2498V15.9999ZM23.747 36.0068L21.5 41.0832L16.9167 34.7499C16.8901 34.7233 16.8608 34.697 16.8304 34.6712L15.9167 33.4165L16.25 31.9165C16.3627 32.0379 16.4771 32.1561 16.5924 32.2725C18.553 34.2781 20.9995 35.6764 23.747 36.0068ZM48.3333 46.0832H29.1667H1.6667V43.3332C1.6667 42.2499 2.25 41.2499 3.25 40.7499C8.56182 37.928 12.3855 36.5117 15.7918 36.0886L21 43.2499C21.1309 43.4463 21.314 43.5388 21.5477 43.5699C21.5871 43.5777 21.6269 43.5832 21.6666 43.5832C21.6666 43.5832 21.7499 43.5832 21.7499 43.6665C21.9999 43.6665 22.3332 43.4165 22.4166 43.1665L25.0046 37.3434L26.1072 39.7621L27.5833 43.0832C27.6666 43.3332 27.9166 43.5832 28.25 43.5832H28.3333C28.5833 43.5832 28.8333 43.4165 29 43.2499L34.262 36.0145C37.6562 36.5267 41.5486 37.942 46.75 40.6665C47.75 41.2498 48.3333 42.2498 48.3333 43.3332V46.0832Z" fill="#FDFDFD"/>
<path d="M23.3333 8.58318H26.6666C27.1666 8.58318 27.4999 8.24988 27.4999 7.74988V3.58318C27.4999 3.08318 27.1666 2.74988 26.6666 2.74988H23.3333C22.8333 2.74988 22.5 3.08318 22.5 3.58318V7.74988C22.5 8.24988 22.8333 8.58318 23.3333 8.58318ZM24.1667 4.41658H25.8334V6.91658H24.1667V4.41658Z" fill="#FDFDFD"/>
</svg>
