<svg width="43" height="43" viewBox="0 0 43 43" fill="none" xmlns="http://www.w3.org/2000/svg">
<path d="M37.9609 9.40625C35.1773 9.40625 32.9219 11.661 32.9219 14.4453V16.125H26.8488C28.8726 12.6639 29.8984 10.0683 29.8984 8.39844C29.8984 3.76749 26.131 0 21.5 0C16.869 0 13.1016 3.76749 13.1016 8.39844C13.1016 10.0683 14.1274 12.6643 16.1512 16.125C15.4695 16.125 10.6677 16.125 10.0781 16.125V14.4453C10.0781 11.6666 7.81776 9.40625 5.03906 9.40625C2.25544 9.40625 0 11.661 0 14.4453V19.1484C0 19.6123 0.375961 19.9883 0.839844 19.9883C1.30373 19.9883 1.67969 19.6123 1.67969 19.1484V14.4453C1.67969 12.5898 3.1832 11.0859 5.03906 11.0859C6.89131 11.0859 8.39844 12.5931 8.39844 14.4453V34.2082C7.50643 33.4087 6.32835 32.9219 5.03906 32.9219C3.74944 32.9219 2.57202 33.4094 1.67969 34.2092V25.8672C1.67969 25.4033 1.30373 25.0273 0.839844 25.0273C0.375961 25.0273 0 25.4033 0 25.8672V37.9609C0 40.8423 2.48738 43 5.27855 43H37.9609C40.7396 43 43 40.7396 43 37.9609V14.4453C43 11.6666 40.7396 9.40625 37.9609 9.40625ZM34.6016 14.4453C34.6016 12.5898 36.1051 11.0859 37.9609 11.0859C39.8132 11.0859 41.3203 12.5931 41.3203 14.4453V34.1852C40.7429 33.6712 40.0478 33.2887 39.2896 33.0931C37.6063 32.6578 35.8745 33.0675 34.6016 34.2043C34.6016 33.4861 34.6016 15.4535 34.6016 14.4453ZM32.9219 26.2031H22.1719C19.3574 23.5232 13.9821 18.4034 13.3538 17.8047H17.1692C19.0028 20.7336 20.8088 23.1538 20.8275 23.179C20.9863 23.391 21.2353 23.5156 21.5 23.5156C21.7647 23.5156 22.0137 23.391 22.1725 23.179C22.1912 23.1538 23.9976 20.7336 25.8308 17.8047H32.9219V26.2031ZM21.5 1.67969C25.2048 1.67969 28.2188 4.69361 28.2188 8.39844C28.2188 11.5167 23.2998 18.7275 21.5 21.2471C19.672 18.6875 14.7812 11.4881 14.7812 8.39844C14.7812 4.69361 17.7952 1.67969 21.5 1.67969ZM1.67969 37.9609C1.67969 36.1087 3.18681 34.6016 5.03906 34.6016C6.89131 34.6016 8.39844 36.1087 8.39844 37.9609C8.39844 38.4248 8.7744 38.8008 9.23828 38.8008C9.70216 38.8008 10.0781 38.4248 10.0781 37.9609V23.9634L18.6025 32.082L8.90234 41.3203H5.27855C3.39513 41.3203 1.67969 39.9126 1.67969 37.9609ZM20.3993 32.6903C20.566 32.5315 20.6602 32.3117 20.6602 32.082C20.6602 31.8524 20.566 31.6323 20.3993 31.4738L10.0781 21.644V17.8047H10.918C10.9754 17.8595 20.8567 27.2703 21.2569 27.6512C21.4131 27.7998 21.6204 27.8828 21.8359 27.8828H32.9219V31.2422H26.5391C26.3163 31.2422 26.1027 31.3308 25.9453 31.4882L16.1129 41.3203H11.3379L20.3993 32.6903ZM37.9609 41.3203H18.4887L26.8871 32.9219H32.9219V37.9609C32.9219 38.4248 33.2978 38.8008 33.7617 38.8008C34.2256 38.8008 34.6016 38.4248 34.6016 37.9609C34.6016 35.7888 36.6356 34.1423 38.8697 34.7193C40.2334 35.0717 41.3203 36.3311 41.3203 37.9609C41.3203 39.8132 39.8132 41.3203 37.9609 41.3203Z" fill="#FDFDFD"/>
<path d="M21.5 12.5977C23.8155 12.5977 25.6992 10.7139 25.6992 8.39844C25.6992 6.08296 23.8155 4.19922 21.5 4.19922C19.1845 4.19922 17.3008 6.08296 17.3008 8.39844C17.3008 10.7139 19.1845 12.5977 21.5 12.5977ZM21.5 5.87891C22.8894 5.87891 24.0195 7.00909 24.0195 8.39844C24.0195 9.78779 22.8894 10.918 21.5 10.918C20.1106 10.918 18.9805 9.78779 18.9805 8.39844C18.9805 7.00909 20.1106 5.87891 21.5 5.87891Z" fill="#FDFDFD"/>
<path d="M0.839844 23.3477C1.3034 23.3477 1.67969 22.9714 1.67969 22.5078C1.67969 22.0443 1.3034 21.668 0.839844 21.668C0.376289 21.668 0 22.0443 0 22.5078C0 22.9714 0.376289 23.3477 0.839844 23.3477Z" fill="#FDFDFD"/>
</svg>
