<svg width="39" height="49" viewBox="0 0 39 49" fill="none" xmlns="http://www.w3.org/2000/svg">
<path d="M38.2548 8.61811C38.2548 8.16026 37.9412 7.7697 37.5135 7.69473L35.6184 7.36122C30.0325 6.37896 24.6854 3.965 20.1549 0.379711C19.8395 0.12994 19.4056 0.12994 19.0902 0.379711C14.5596 3.965 9.21257 6.37896 3.62669 7.36122L1.73158 7.69473C1.30389 7.7697 0.990234 8.16026 0.990234 8.61811V15.7331C0.990234 25.4288 3.62426 34.644 10.1199 41.5542C14.6522 46.3751 19.1505 48.0091 19.3397 48.076C19.4312 48.1089 19.5269 48.125 19.6225 48.125C19.7178 48.125 19.8135 48.1085 19.9053 48.076C20.0946 48.0091 24.5929 46.3751 29.1248 41.5542C35.6218 34.6429 38.2548 25.427 38.2548 15.7331V8.61811ZM36.4803 15.7331C36.4803 25.8713 33.6026 34.0929 27.9273 40.1693C24.3135 44.0387 20.6505 45.7564 19.6225 46.1883C18.5932 45.7557 14.9308 44.0376 11.3177 40.1693C5.64242 34.0929 2.76474 25.8713 2.76474 15.7331V9.41094L3.91851 9.20835C9.56608 8.21512 14.9814 5.82785 19.6225 2.29084C24.2636 5.82785 29.6786 8.21512 35.3265 9.20835L36.4803 9.41094V15.7331Z" fill="#FDFDFD"/>
<path d="M5.76745 20.8022C6.09047 20.6617 6.31748 20.3264 6.31748 19.9362C6.31748 19.4736 5.99897 19.0889 5.58099 19.0139C5.53212 19.0048 5.48152 19 5.43023 19C4.9405 19 4.54297 19.4195 4.54297 19.9362C4.54297 20.4529 4.9405 20.8724 5.43023 20.8724C5.55014 20.8724 5.66348 20.8468 5.76745 20.8022Z" fill="#FDFDFD"/>
<path d="M33.9921 10.855C29.0997 9.84789 24.2996 7.7934 20.1108 4.91281C19.8162 4.71022 19.436 4.71022 19.1417 4.91281C14.9089 7.82522 10.2384 9.82448 5.25936 10.8554C4.84311 10.9413 4.54297 11.3264 4.54297 11.774C4.54297 11.774 4.54574 16.3836 4.55198 16.689C4.56203 17.1991 4.95714 17.6054 5.43889 17.6054C5.44512 17.6054 5.45136 17.6054 5.4576 17.605C5.94767 17.5944 6.33653 17.1662 6.32614 16.6495C6.32025 16.3576 6.31747 12.5372 6.31747 12.5372C11.065 11.4635 15.5362 9.53924 19.6266 6.80931C23.6816 9.51071 28.2569 11.4796 32.935 12.5379V15.733C32.935 29.7648 26.3891 38.7342 19.6221 42.1436C14.0695 39.3384 8.91164 32.7346 7.0952 23.8654C6.99158 23.36 6.51988 23.0393 6.04021 23.1483C5.56158 23.2572 5.25693 23.7557 5.36056 24.2611C7.36658 34.0552 13.2398 41.2243 19.2641 44.031C19.3784 44.084 19.5004 44.1107 19.6224 44.1107C19.7458 44.1107 19.8692 44.0837 19.9843 44.0295C27.6583 40.4157 34.7095 30.558 34.7095 15.733V11.774C34.7095 11.3257 34.4087 10.9406 33.9921 10.855Z" fill="#FDFDFD"/>
</svg>
